<?xml version="1.0" encoding="utf-8"?>
<!-- Generator: Adobe Illustrator 18.1.0, SVG Export Plug-In . SVG Version: 6.00 Build 0)  -->
<svg version="1.1" id="Layer_1" xmlns="http://www.w3.org/2000/svg" xmlns:xlink="http://www.w3.org/1999/xlink" x="0px" y="0px"
	 viewBox="0 0 1811.5 1038.5" enable-background="new 0 0 1811.5 1038.5" xml:space="preserve">
<g>
	<path fill="#ff0000" d="M216.7,146.8h81.3c31.4,0.2,55,13.7,70.8,40.5c5.6,9,9.2,18.4,10.7,28.3c1.2,9.9,1.8,26.9,1.8,51.2
		c0,25.8-0.9,43.8-2.7,54c-0.8,5.2-2.1,9.8-3.8,13.8c-1.8,3.9-4,8.1-6.5,12.3c-6.8,11.3-16.3,20.6-28.4,28
		c-12,7.9-26.7,11.8-44.1,11.8h-78.9V146.8z M251.8,352.4h42.1c19.8,0,34.1-7,43.1-20.9c3.9-5.2,6.4-11.7,7.5-19.6
		c1-7.8,1.4-22.4,1.4-43.8c0-20.9-0.5-35.8-1.4-44.8c-1.3-9-4.3-16.3-9.1-21.9c-9.8-14-23.6-20.7-41.5-20.3h-42.1V352.4z"/>
	<path fill="#ff0000" d="M435.1,314.3c0,13.7,3.8,24.1,11.5,31.3c7.1,7.2,16.5,10.9,28.1,10.9c13.5,0,25.6-5.5,36.2-16.6l24.1,21.2
		c-16.9,18.6-36.7,27.8-59.6,27.6c-8.7,0-17.2-1.3-25.5-3.9c-4.1-1.4-8.2-3.3-12.1-5.8c-4.1-2.1-8-4.7-11.6-7.7
		c-7-6.4-12.7-15.2-17-26.6c-4.8-11-7.2-25.2-7.2-42.8c0-16.9,2.1-30.9,6.2-42.1c4.1-11.4,9.4-20.4,15.9-27
		c6.6-6.7,14-11.5,22.1-14.5c8.1-3,16-4.4,23.9-4.4C489,214,505,220.4,518,233c13.3,12.8,20,30.5,20.2,53v28.3H435.1z M505.1,286
		c-0.4-13.3-3.9-23.4-10.4-30.2c-6.4-6.5-14.6-9.8-24.6-9.8c-10,0-18.2,3.3-24.6,9.8c-6.3,6.8-9.7,16.9-10.4,30.2H505.1z"/>
	<path fill="#ff0000" d="M690.2,359.2c-7.2,8.5-15.7,15.4-25.5,20.8c-9.8,5.6-21.1,8.5-33.9,8.7c-19.5,0-36.6-6.9-51.4-20.6
		c-15.3-13.7-23.1-35.9-23.5-66.6c0.4-31,8.3-53.5,23.6-67.4c14.8-13.7,31.9-20.4,51.4-20.2c12.8,0.2,24.1,3,33.9,8.2
		c9.8,5.4,18.3,12.5,25.5,21.5L665.7,266c-8.4-11.6-19.6-17.5-33.6-18c-28.3-0.4-42.6,17.4-43,53.5c0.4,35.9,14.8,53.5,43,53
		c14-0.2,25.2-6.2,33.6-17.8L690.2,359.2z"/>
	<path fill="#ff0000" d="M699.7,301.1c0-18,1.4-31.9,4.3-41.5c3-9.4,7.5-17.4,13.7-23.9c4.6-5.7,10.9-10.7,19.1-15.2
		c8.1-4.3,18.4-6.5,31.1-6.7c13.1,0.2,23.6,2.5,31.7,6.7c8,4.5,14.1,9.6,18.5,15.3c6.6,6.5,11.2,14.4,14,23.8c2.6,9.7,4,23.5,4,41.4
		c0,18-1.3,31.7-4,41.1c-2.8,9.4-7.4,17.6-14,24.5c-2.1,2.5-4.7,5-7.8,7.4c-2.8,2.7-6.3,5.1-10.7,7.1c-8.1,4.7-18.6,7.2-31.7,7.4
		c-12.6-0.2-23-2.7-31.1-7.4c-8.2-4.3-14.5-9.1-19.1-14.5c-6.2-6.9-10.7-15.1-13.7-24.5C701.1,332.8,699.7,319.1,699.7,301.1z
		 M802.8,301.4c0-12.2-0.5-21.1-1.6-26.7c-1.1-5.4-3.2-10.1-6.5-14.2c-2.4-3.9-6.1-6.9-10.9-9.1c-4.6-2.3-9.9-3.5-16-3.5
		c-5.6,0-10.9,1.2-15.6,3.5c-4.6,2.2-8.3,5.2-11.2,9.1c-2.9,4.1-5,8.8-6.2,14.2c-1.3,5.6-1.9,14.4-1.9,26.4
		c0,11.9,0.6,20.6,1.9,26.1c1.3,5.6,3.3,10.6,6.2,14.9c2.9,3.3,6.6,6.2,11.2,8.7c4.8,2.4,10,3.6,15.6,3.6c6.1,0,11.4-1.2,16-3.6
		c4.8-2.5,8.4-5.4,10.9-8.7c3.3-4.3,5.5-9.2,6.5-14.9C802.3,321.7,802.8,313.1,802.8,301.4z"/>
	<path fill="#ff0000" d="M862.9,146.8H896v195.9c0,7.8,4.2,11.7,12.5,11.7H920v32.2h-14.8c-12.1,0-22.1-3.1-29.9-9.3
		c-8.3-6.3-12.4-17-12.4-31.9V146.8z"/>
	<path fill="#ff0000" d="M931.4,301.1c0-18,1.4-31.9,4.3-41.5c3-9.4,7.5-17.4,13.7-23.9c4.6-5.7,10.9-10.7,19.1-15.2
		c8.1-4.3,18.4-6.5,31.1-6.7c13.1,0.2,23.6,2.5,31.7,6.7c8,4.5,14.1,9.6,18.5,15.3c6.6,6.5,11.2,14.4,14,23.8c2.6,9.7,4,23.5,4,41.4
		c0,18-1.3,31.7-4,41.1c-2.8,9.4-7.4,17.6-14,24.5c-2.1,2.5-4.7,5-7.8,7.4c-2.8,2.7-6.3,5.1-10.7,7.1c-8.1,4.7-18.6,7.2-31.7,7.4
		c-12.6-0.2-23-2.7-31.1-7.4c-8.2-4.3-14.5-9.1-19.1-14.5c-6.2-6.9-10.7-15.1-13.7-24.5C932.8,332.8,931.4,319.1,931.4,301.1z
		 M1034.5,301.4c0-12.2-0.5-21.1-1.6-26.7c-1.1-5.4-3.2-10.1-6.5-14.2c-2.4-3.9-6.1-6.9-10.9-9.1c-4.6-2.3-9.9-3.5-16-3.5
		c-5.6,0-10.9,1.2-15.6,3.5c-4.6,2.2-8.3,5.2-11.2,9.1c-2.9,4.1-5,8.8-6.2,14.2c-1.3,5.6-1.9,14.4-1.9,26.4
		c0,11.9,0.6,20.6,1.9,26.1c1.3,5.6,3.3,10.6,6.2,14.9c2.9,3.3,6.6,6.2,11.2,8.7c4.8,2.4,10,3.6,15.6,3.6c6.1,0,11.4-1.2,16-3.6
		c4.8-2.5,8.4-5.4,10.9-8.7c3.3-4.3,5.5-9.2,6.5-14.9C1034,321.7,1034.5,313.1,1034.5,301.4z"/>
	<path fill="#ff0000" d="M1097,215.9h33.2V234h0.6c10.9-13.5,25.3-20.2,43-20.2c13.7,0,26.2,5,37.6,15
		c11.2,10.1,17.1,24.9,17.7,44.4v113.5h-33.2V284.9c0-12-3.1-21.1-9.2-27.3c-6.1-6.4-13.9-9.6-23.4-9.6s-17.4,3.2-23.6,9.6
		c-6.3,6.3-9.4,15.4-9.4,27.3v101.8H1097V215.9z"/>
	<path fill="#ff0000" d="M1261.3,146.8h33.2V181h-33.2V146.8z M1261.3,215.9h33.2v170.7h-33.2V215.9z"/>
	<path fill="#ff0000" d="M1323.9,359.5l82.9-113.3h-80.9v-30.2h121.4v27.3l-85.5,111.2h85.5v32.2h-123.3V359.5z"/>
	<path fill="#ff0000" d="M1495.4,314.3c0,13.7,3.8,24.1,11.5,31.3c7.1,7.2,16.5,10.9,28.1,10.9c13.5,0,25.6-5.5,36.2-16.6l24.1,21.2
		c-16.9,18.6-36.7,27.8-59.6,27.6c-8.7,0-17.2-1.3-25.5-3.9c-4.1-1.4-8.2-3.3-12.1-5.8c-4.1-2.1-8-4.7-11.6-7.7
		c-7-6.4-12.7-15.2-17-26.6c-4.8-11-7.2-25.2-7.2-42.8c0-16.9,2.1-30.9,6.2-42.1c4.1-11.4,9.4-20.4,15.9-27
		c6.6-6.7,14-11.5,22.1-14.5c8.1-3,16-4.4,23.9-4.4c18.9,0.2,34.9,6.6,47.9,19.2c13.3,12.8,20,30.5,20.2,53v28.3H1495.4z
		 M1565.3,286c-0.4-13.3-3.9-23.4-10.4-30.2c-6.4-6.5-14.6-9.8-24.6-9.8c-10,0-18.2,3.3-24.6,9.8c-6.3,6.8-9.7,16.9-10.4,30.2
		H1565.3z"/>
	<path fill="#ff0000" d="M278.6,673.3h-63.7v-32.2h162.5v32.2h-63.7v207.6h-35.2V673.3z"/>
	<path fill="#ff0000" d="M401.5,641.1h33.2v87.2h0.6c10.9-13.5,25.3-20.2,43-20.2c13.7,0,26.2,5,37.6,15
		c11.2,10.1,17.1,24.9,17.7,44.4v113.5h-33.2V779.1c0-12-3.1-21.1-9.2-27.3c-6.1-6.4-13.9-9.6-23.4-9.6c-9.6,0-17.4,3.2-23.6,9.6
		c-6.3,6.3-9.4,15.4-9.4,27.3v101.8h-33.2V641.1z"/>
	<path fill="#ff0000" d="M560.2,641.1h33.2v34.2h-33.2V641.1z M560.2,710.1h33.2v170.7h-33.2V710.1z"/>
	<path fill="#ff0000" d="M634.7,828.7c13.5,14.6,31,21.9,52.4,21.9c9.6,0,17.4-1.9,23.5-5.8c6.1-3.8,9.1-9.2,9.1-16.1
		c0-6.1-1.8-10.4-5.4-12.8c-3.7-2.5-8.7-3.9-14.8-4.1l-29.4-2.6c-13.9-1.3-25.3-6.1-34-14.5c-8.9-8.1-13.5-19.5-13.7-34.1
		c0.2-17.5,6.2-30.7,18-39.5c11.5-8.8,26-13.2,43.7-13.2c7.7,0,14.5,0.5,20.6,1.5c6.1,1.1,11.7,2.6,17.1,4.6
		c10.2,4.3,19.3,10,27.4,17.3l-20.6,24.8c-6.4-4.8-13.1-8.7-20.3-11.8c-7-2.8-15.1-4.2-24.3-4.2c-10.4,0-17.7,1.9-21.9,5.8
		c-4.4,3.8-6.5,8.8-6.5,14.8c-0.2,3.8,1.4,7.2,4.9,10c3.2,3.2,8.8,5.2,16.9,6.1l27.5,2.1c17.2,1.3,29.7,6.7,37.4,16.1
		c7.1,9.2,10.7,20.9,10.7,35.1c-0.2,16.6-6.7,29.4-19.6,38.4c-12.8,9.2-29.1,13.9-48.9,14.2c-27,0-51.3-10.2-72.8-30.6L634.7,828.7z
		"/>
	<path fill="#ff0000" d="M911.6,641.1h84.2c9.1,0,18,0.9,26.5,2.6c8.5,2.3,17.1,7,25.8,14.1c7.3,5.4,13.3,13,17.8,23
		c4.8,9.7,7.2,21.1,7.2,34.2c0,17.8-6.1,33.9-18.2,48.5c-12.4,15.3-30.6,23.2-54.6,23.7h-53.6v93.6h-35.2V641.1z M946.7,753.1h52.2
		c13.1-0.2,22.9-4.4,29.5-12.6c6.3-7.9,9.4-16.7,9.4-26.4c0-8-1.3-14.8-3.8-20.3c-2.7-5-6.4-8.9-11.2-11.7c-7.2-4.7-15.6-7-25.2-6.8
		h-50.9V753.1z"/>
	<path fill="#ff0000" d="M1088.8,641.1h33.2V837c0,7.8,4.2,11.7,12.5,11.7h11.5v32.2h-14.8c-12.1,0-22.1-3.1-29.9-9.3
		c-8.3-6.3-12.4-17-12.4-31.9V641.1z"/>
	<path fill="#ff0000" d="M1261.8,865.7h-0.6c-3.1,5.8-7.9,10.1-14.3,12.8c-6.4,2.8-15.2,4.3-26.4,4.3c-18.5-0.2-32.7-5.3-42.7-15.1
		c-10.5-9.6-15.8-22-15.8-37c0-14.4,4.6-26.3,13.7-35.7c9.1-9.6,22.5-14.6,40.1-14.8h46v-18c0.2-15.1-11.1-22.4-33.9-22
		c-8.3,0-14.8,0.9-19.6,2.6c-5,2.1-8.9,5.6-11.8,10.6l-26.1-20.6c12.6-17,31.3-25.3,55.9-24.9c20.8-0.2,37.4,3.8,49.8,12.2
		c12.4,8.6,18.7,23.2,18.9,44.1v116.6h-33.2V865.7z M1261.8,808.5h-39.9c-19.4,0.4-28.9,7.3-28.7,20.6c0,5.8,2.5,10.8,7.5,14.8
		c4.8,4.5,12.7,6.7,23.8,6.7c13.9,0.2,23.8-1.5,29.5-5.1c5.2-3.6,7.8-11.9,7.8-24.7V808.5z"/>
	<path fill="#ff0000" d="M1453.3,853.4c-7.2,8.5-15.7,15.4-25.5,20.8c-9.8,5.6-21.1,8.5-33.9,8.7c-19.5,0-36.6-6.9-51.4-20.6
		c-15.3-13.7-23.1-35.9-23.5-66.6c0.4-31,8.3-53.5,23.6-67.4c14.8-13.7,31.9-20.4,51.4-20.2c12.8,0.2,24.1,3,33.9,8.2
		c9.8,5.4,18.3,12.5,25.5,21.5l-24.5,22.5c-8.4-11.6-19.6-17.5-33.6-18c-28.3-0.4-42.6,17.4-43,53.5c0.4,35.9,14.8,53.5,43,53
		c14-0.2,25.2-6.2,33.6-17.8L1453.3,853.4z"/>
	<path fill="#ff0000" d="M1495.9,808.5c0,13.7,3.8,24.1,11.5,31.3c7.1,7.2,16.5,10.9,28.1,10.9c13.5,0,25.6-5.5,36.2-16.6l24.1,21.2
		c-16.9,18.6-36.7,27.8-59.6,27.6c-8.7,0-17.2-1.3-25.5-3.9c-4.1-1.4-8.2-3.3-12.1-5.8c-4.1-2.1-8-4.7-11.6-7.7
		c-7-6.4-12.7-15.2-17-26.6c-4.8-11-7.2-25.2-7.2-42.8c0-16.9,2.1-30.9,6.2-42.1c4.1-11.4,9.4-20.4,15.9-27
		c6.6-6.7,14-11.5,22.1-14.5c8.1-3,16-4.4,23.9-4.4c18.9,0.2,34.9,6.6,47.9,19.2c13.3,12.8,20,30.5,20.2,53v28.3H1495.9z
		 M1565.9,780.2c-0.4-13.3-3.9-23.4-10.4-30.2c-6.4-6.5-14.6-9.8-24.6-9.8c-10,0-18.2,3.3-24.6,9.8c-6.3,6.8-9.7,16.9-10.4,30.2
		H1565.9z"/>
</g>
<path fill="none" stroke="#ff0000" stroke-width="33.0884" stroke-miterlimit="10" d="M1673.2,1022H138.3
	c-67,0-121.8-54.8-121.8-121.8V138.3c0-67,54.8-121.8,121.8-121.8h1534.8c67,0,121.8,54.8,121.8,121.8v761.9
	C1795,967.2,1740.2,1022,1673.2,1022z"/>
<line fill="none" stroke="#ff0000" stroke-width="33.0884" stroke-miterlimit="10" x1="13.1" y1="510.2" x2="1803.4" y2="510.2"/>
</svg>
